<?xml version="1.0" encoding="iso-8859-1"?>
<!-- Generator: Adobe Illustrator 19.1.0, SVG Export Plug-In . SVG Version: 6.00 Build 0)  -->
<svg version="1.1" id="Capa_1" xmlns="http://www.w3.org/2000/svg" xmlns:xlink="http://www.w3.org/1999/xlink" x="0px" y="0px"
	 viewBox="0 0 512 512" style="enable-background:new 0 0 512 512;" xml:space="preserve">
<g>
	<g>
		<path style="fill:#B9BBC1;" d="M192,92c-13.531,0-25.664,8.574-30.172,21.332c-1.477,4.164,0.703,8.738,4.875,10.211
			c2.733,0.982,5.594,0.241,7.695-1.501L208,162.393V172c0,4.418,3.578,8,8,8s8-3.582,8-8v-48C224,106.355,209.648,92,192,92z"/>
	</g>
	<g>
		<path style="fill:#8B8996;" d="M168,108c-14.664,0-28.523,5.629-39.328,16.176L26.102,236.152l11.797,10.805l2.771-3.027
			L208,289.806V292c0,4.418,3.578,8,8,8s8-3.582,8-8V164C224,133.121,198.875,108,168,108z"/>
	</g>
	<g>
		<path style="fill:#B9BBC1;" d="M320,92c13.531,0,25.664,8.574,30.172,21.332c1.477,4.164-0.703,8.738-4.875,10.211
			c-2.733,0.982-5.594,0.241-7.695-1.501L304,162.393V172c0,4.418-3.578,8-8,8s-8-3.582-8-8v-48C288,106.355,302.351,92,320,92z"/>
	</g>
	<g>
		<path style="fill:#8B8996;" d="M344,108c14.664,0,28.523,5.629,39.328,16.176l102.57,111.977l-11.797,10.805l-2.771-3.027
			L304,289.806V292c0,4.418-3.578,8-8,8s-8-3.582-8-8V164C288,133.121,313.125,108,344,108z"/>
	</g>
	<g>
		<circle style="fill:#53DCFF;" cx="112" cy="308" r="88"/>
	</g>
	<g>
		<path style="fill:#5C546A;" d="M112,196C50.242,196,0,246.242,0,308s50.242,112,112,112s112-50.242,112-112S173.758,196,112,196z
			 M112,388c-44.111,0-80-35.889-80-80s35.889-80,80-80s80,35.889,80,80S156.111,388,112,388z"/>
	</g>
	<g>
		<path style="fill:#5C546A;" d="M192,204h128l1.23-0.017C305.661,219.23,296,240.487,296,264v28h-80v-28
			c0-23.513-9.661-44.77-25.23-60.017"/>
	</g>
	<g>
		<circle style="fill:#FFFFFF;" cx="128" cy="292" r="32"/>
	</g>
	<g>
		<circle style="fill:#53DCFF;" cx="400" cy="308" r="88"/>
	</g>
	<g>
		<path style="fill:#5C546A;" d="M400,196c-61.758,0-112,50.242-112,112s50.242,112,112,112s112-50.242,112-112S461.758,196,400,196
			z M400,388c-44.111,0-80-35.889-80-80s35.889-80,80-80s80,35.889,80,80S444.111,388,400,388z"/>
	</g>
	<g>
		<circle style="fill:#FFFFFF;" cx="416" cy="292" r="32"/>
	</g>
	<g>
		<rect x="192" y="188" style="fill:#8B8996;" width="128" height="16"/>
	</g>
</g>
<g>
</g>
<g>
</g>
<g>
</g>
<g>
</g>
<g>
</g>
<g>
</g>
<g>
</g>
<g>
</g>
<g>
</g>
<g>
</g>
<g>
</g>
<g>
</g>
<g>
</g>
<g>
</g>
<g>
</g>
</svg>
